# xmcd
#
# Track frame offsets:
#	150
#	20654
#	33844
#	46170
#	59840
#	73033
#	86241
#	108195
#	121747
#	140355
#	155036
#	170340
#	190398
#	203551
#	222206
#
# Disc length: 3025 seconds
# Revision: 0
# Processed by: cddbd v1.5.2PL0 Copyright (c) Steve Scherf et al.
# Submitted via: dBpowerAMP V12.0
#
DISCID=d50bcf0f
DTITLE=The Spring Hillbillies - The Spring Hillbillies
DYEAR=2010
DGENRE=Americana
TTITLE0=Concrete Jungle
TTITLE1=Fish On Friday
TTITLE2=Liquor Store
TTITLE3=Chicken 'N Biscuits
TTITLE4=Eye Of The Hurricane
TTITLE5=Baseball Blues
TTITLE6=Morning Light
TTITLE7=Who Needs Enemies?
TTITLE8=Darkest Night
TTITLE9=Dejah Mae
TTITLE10=Slow Moving Train
TTITLE11=American Dream
TTITLE12=Miss Information
TTITLE13=Gooseberry Pie
TTITLE14=[Untitled]
EXTD=
EXTT0=
EXTT1=
EXTT2=
EXTT3=
EXTT4=
EXTT5=
EXTT6=
EXTT7=
EXTT8=
EXTT9=
EXTT10=
EXTT11=
EXTT12=
EXTT13=
EXTT14=
PLAYORDER=
